# xmcd
#
# Track frame offsets:
#	150
#	17220
#	29588
#	44885
#	57216
#	70424
#	89220
#	103553
#	118407
#	137981
#	150094
#	162064
#	171730
#	184031
#	200123
#	213071
#	229522
#	244893
#	262239
#	273672
#	284514
#
# Disc length: 3976
#
# Revision: 2
# Processed by: cddbd v1.5.1PL0 Copyright (c) Steve Scherf et al.
# Submitted via: ExactAudioCopy v0.90b4
# Normalized: r1:TDELIM( - )
#
DISCID=4f0f8615
DTITLE=Various Artist - Country Legends [CD 2)
DYEAR=1900
DGENRE=Country
TTITLE0=Johnny Cash - A Boy Named Sue
TTITLE1=Dolly Parton - 9 To 5
TTITLE2=Billy Ray Cyrus - Achy Breaky Heart
TTITLE3=Billy Joe Spears - What I've Got In Mind
TTITLE4=Dr Hook - When You're In Love With A Beautiful Woman
TTITLE5=Kenny Rogers and Dolly Parton - Islands In The Stream
TTITLE6=Glen Campbell - Rhinestone Cowboy
TTITLE7=Olivia Newton John - Take Me Home Country Roads
TTITLE8=Kenny Rogers - Coward Of The County
TTITLE9=Charlie Rich - The Most Beautiful Girl
TTITLE10=Tammy Wynette - Stand By Your Man
TTITLE11=Ned Miller - From A Jack To A King
TTITLE12=Johnny Cash - I Walk The Line
TTITLE13=Billie Joe Spears - Blanket On The Ground
TTITLE14=Bobbie Gentry - I'll Never Fall In Love Again
TTITLE15=Kenny Rogers - Lucille
TTITLE16=Don McLean - Crazy
TTITLE17=Kenny Rogers and Sheena Easton - We've Got Tonight
TTITLE18=Crystal Gayle - Don't It Make My Brown Eyes Blue
TTITLE19=Jim Reeves - He'll Have To Go
TTITLE20=Willie Nelson - Funny How Time Slips Away
EXTD=
EXTT0=
EXTT1=
EXTT2=
EXTT3=
EXTT4=
EXTT5=
EXTT6=
EXTT7=
EXTT8=
EXTT9=
EXTT10=
EXTT11=
EXTT12=
EXTT13=
EXTT14=
EXTT15=
EXTT16=
EXTT17=
EXTT18=
EXTT19=
EXTT20=
PLAYORDER=
